<svg width="20" height="20" viewBox="0 0 20 20" fill="none" xmlns="http://www.w3.org/2000/svg">
<path d="M9.99999 4.16699C9.59728 4.16699 9.27082 4.49345 9.27082 4.89616V9.27116H4.89582C4.49312 9.27116 4.16666 9.59762 4.16666 10.0003C4.16666 10.403 4.49312 10.7295 4.89582 10.7295H9.27082V15.1045C9.27082 15.5072 9.59728 15.8337 9.99999 15.8337C10.4027 15.8337 10.7292 15.5072 10.7292 15.1045V10.7295H15.1042C15.5069 10.7295 15.8333 10.403 15.8333 10.0003C15.8333 9.59762 15.5069 9.27116 15.1042 9.27116H10.7292V4.89616C10.7292 4.49345 10.4027 4.16699 9.99999 4.16699Z" fill="#4F46E5"/>
</svg>
