<svg width="153" height="44" viewBox="0 0 153 44" fill="none" xmlns="http://www.w3.org/2000/svg">
            <rect x="0.100098" width="1" height="1" fill="#87B6F5" />
            <rect x="5.1001" width="1" height="1" fill="#87B6F5" />
            <rect x="10.1001" width="1" height="1" fill="#87B6F5" />
            <rect x="15.1001" width="1" height="1" fill="#87B6F5" />
            <rect x="20.1001" width="1" height="1" fill="#87B6F5" />
            <rect x="25.1001" width="1" height="1" fill="#87B6F5" />
            <rect x="30.1001" width="1" height="1" fill="#87B6F5" />
            <rect x="35.1001" width="1" height="1" fill="#87B6F5" />
            <rect x="40.1001" width="1" height="1" fill="#87B6F5" />
            <rect x="45.1001" width="1" height="1" fill="#87B6F5" />
            <rect x="50.1001" width="1" height="1" fill="#87B6F5" />
            <rect x="55.1001" width="1" height="1" fill="#87B6F5" />
            <rect x="60.1001" width="1" height="1" fill="#87B6F5" />
            <rect x="65.1001" width="1" height="1" fill="#87B6F5" />
            <rect x="70.1001" width="1" height="1" fill="#87B6F5" />
            <rect x="75.1001" width="1" height="1" fill="#87B6F5" />
            <rect x="80.1001" width="1" height="1" fill="#87B6F5" />
            <rect x="85.1001" width="1" height="1" fill="#87B6F5" />
            <rect x="90.1001" width="1" height="1" fill="#87B6F5" />
            <rect x="95.1001" width="1" height="1" fill="#87B6F5" />
            <rect x="100.1" width="1" height="1" fill="#87B6F5" />
            <rect x="105.1" width="1" height="1" fill="#87B6F5" />
            <rect x="110.1" width="1" height="1" fill="#87B6F5" />
            <rect x="115.1" width="1" height="1" fill="#87B6F5" />
            <rect x="120.1" width="1" height="1" fill="#87B6F5" />
            <rect x="125.1" width="1" height="1" fill="#87B6F5" />
            <rect x="130.1" width="1" height="1" fill="#87B6F5" />
            <rect x="135.1" width="1" height="1" fill="#87B6F5" />
            <rect x="140.1" width="1" height="1" fill="#87B6F5" />
            <rect x="145.1" width="1" height="1" fill="#87B6F5" />
            <rect x="150.1" width="1" height="1" fill="#87B6F5" />
            <rect x="3.1001" y="3" width="1" height="1" fill="#87B6F5" />
            <rect x="8.1001" y="3" width="1" height="1" fill="#87B6F5" />
            <rect x="13.1001" y="3" width="1" height="1" fill="#87B6F5" />
            <rect x="18.1001" y="3" width="1" height="1" fill="#87B6F5" />
            <rect x="23.1001" y="3" width="1" height="1" fill="#87B6F5" />
            <rect x="28.1001" y="3" width="1" height="1" fill="#87B6F5" />
            <rect x="33.1001" y="3" width="1" height="1" fill="#87B6F5" />
            <rect x="38.1001" y="3" width="1" height="1" fill="#87B6F5" />
            <rect x="43.1001" y="3" width="1" height="1" fill="#87B6F5" />
            <rect x="48.1001" y="3" width="1" height="1" fill="#87B6F5" />
            <rect x="53.1001" y="3" width="1" height="1" fill="#87B6F5" />
            <rect x="58.1001" y="3" width="1" height="1" fill="#87B6F5" />
            <rect x="63.1001" y="3" width="1" height="1" fill="#87B6F5" />
            <rect x="68.1001" y="3" width="1" height="1" fill="#87B6F5" />
            <rect x="73.1001" y="3" width="1" height="1" fill="#87B6F5" />
            <rect x="78.1001" y="3" width="1" height="1" fill="#87B6F5" />
            <rect x="83.1001" y="3" width="1" height="1" fill="#87B6F5" />
            <rect x="88.1001" y="3" width="1" height="1" fill="#87B6F5" />
            <rect x="93.1001" y="3" width="1" height="1" fill="#87B6F5" />
            <rect x="98.1001" y="3" width="1" height="1" fill="#87B6F5" />
            <rect x="103.1" y="3" width="1" height="1" fill="#87B6F5" />
            <rect x="108.1" y="3" width="1" height="1" fill="#87B6F5" />
            <rect x="113.1" y="3" width="1" height="1" fill="#87B6F5" />
            <rect x="118.1" y="3" width="1" height="1" fill="#87B6F5" />
            <rect x="123.1" y="3" width="1" height="1" fill="#87B6F5" />
            <rect x="128.1" y="3" width="1" height="1" fill="#87B6F5" />
            <rect x="133.1" y="3" width="1" height="1" fill="#87B6F5" />
            <rect x="138.1" y="3" width="1" height="1" fill="#87B6F5" />
            <rect x="143.1" y="3" width="1" height="1" fill="#87B6F5" />
            <rect x="148.1" y="3" width="1" height="1" fill="#87B6F5" />
            <rect x="0.100098" y="6" width="1" height="1" fill="#87B6F5" />
            <rect x="5.1001" y="6" width="1" height="1" fill="#87B6F5" />
            <rect x="10.1001" y="6" width="1" height="1" fill="#87B6F5" />
            <rect x="15.1001" y="6" width="1" height="1" fill="#87B6F5" />
            <rect x="20.1001" y="6" width="1" height="1" fill="#87B6F5" />
            <rect x="25.1001" y="6" width="1" height="1" fill="#87B6F5" />
            <rect x="30.1001" y="6" width="1" height="1" fill="#87B6F5" />
            <rect x="35.1001" y="6" width="1" height="1" fill="#87B6F5" />
            <rect x="40.1001" y="6" width="1" height="1" fill="#87B6F5" />
            <rect x="45.1001" y="6" width="1" height="1" fill="#87B6F5" />
            <rect x="50.1001" y="6" width="1" height="1" fill="#87B6F5" />
            <rect x="55.1001" y="6" width="1" height="1" fill="#87B6F5" />
            <rect x="60.1001" y="6" width="1" height="1" fill="#87B6F5" />
            <rect x="65.1001" y="6" width="1" height="1" fill="#87B6F5" />
            <rect x="70.1001" y="6" width="1" height="1" fill="#87B6F5" />
            <rect x="75.1001" y="6" width="1" height="1" fill="#87B6F5" />
            <rect x="80.1001" y="6" width="1" height="1" fill="#87B6F5" />
            <rect x="85.1001" y="6" width="1" height="1" fill="#87B6F5" />
            <rect x="90.1001" y="6" width="1" height="1" fill="#87B6F5" />
            <rect x="95.1001" y="6" width="1" height="1" fill="#87B6F5" />
            <rect x="100.1" y="6" width="1" height="1" fill="#87B6F5" />
            <rect x="105.1" y="6" width="1" height="1" fill="#87B6F5" />
            <rect x="110.1" y="6" width="1" height="1" fill="#87B6F5" />
            <rect x="115.1" y="6" width="1" height="1" fill="#87B6F5" />
            <rect x="120.1" y="6" width="1" height="1" fill="#87B6F5" />
            <rect x="125.1" y="6" width="1" height="1" fill="#87B6F5" />
            <rect x="130.1" y="6" width="1" height="1" fill="#87B6F5" />
            <rect x="135.1" y="6" width="1" height="1" fill="#87B6F5" />
            <rect x="140.1" y="6" width="1" height="1" fill="#87B6F5" />
            <rect x="145.1" y="6" width="1" height="1" fill="#87B6F5" />
            <rect x="150.1" y="6" width="1" height="1" fill="#87B6F5" />
            <rect x="3.1001" y="9" width="1" height="1" fill="#87B6F5" />
            <rect x="8.1001" y="9" width="1" height="1" fill="#87B6F5" />
            <rect x="13.1001" y="9" width="1" height="1" fill="#87B6F5" />
            <rect x="18.1001" y="9" width="1" height="1" fill="#87B6F5" />
            <rect x="23.1001" y="9" width="1" height="1" fill="#87B6F5" />
            <rect x="28.1001" y="9" width="1" height="1" fill="#87B6F5" />
            <rect x="33.1001" y="9" width="1" height="1" fill="#87B6F5" />
            <rect x="38.1001" y="9" width="1" height="1" fill="#87B6F5" />
            <rect x="43.1001" y="9" width="1" height="1" fill="#87B6F5" />
            <rect x="48.1001" y="9" width="1" height="1" fill="#87B6F5" />
            <rect x="53.1001" y="9" width="1" height="1" fill="#87B6F5" />
            <rect x="58.1001" y="9" width="1" height="1" fill="#87B6F5" />
            <rect x="63.1001" y="9" width="1" height="1" fill="#87B6F5" />
            <rect x="68.1001" y="9" width="1" height="1" fill="#87B6F5" />
            <rect x="73.1001" y="9" width="1" height="1" fill="#87B6F5" />
            <rect x="78.1001" y="9" width="1" height="1" fill="#87B6F5" />
            <rect x="83.1001" y="9" width="1" height="1" fill="#87B6F5" />
            <rect x="88.1001" y="9" width="1" height="1" fill="#87B6F5" />
            <rect x="93.1001" y="9" width="1" height="1" fill="#87B6F5" />
            <rect x="98.1001" y="9" width="1" height="1" fill="#87B6F5" />
            <rect x="103.1" y="9" width="1" height="1" fill="#87B6F5" />
            <rect x="108.1" y="9" width="1" height="1" fill="#87B6F5" />
            <rect x="113.1" y="9" width="1" height="1" fill="#87B6F5" />
            <rect x="118.1" y="9" width="1" height="1" fill="#87B6F5" />
            <rect x="123.1" y="9" width="1" height="1" fill="#87B6F5" />
            <rect x="128.1" y="9" width="1" height="1" fill="#87B6F5" />
            <rect x="133.1" y="9" width="1" height="1" fill="#87B6F5" />
            <rect x="138.1" y="9" width="1" height="1" fill="#87B6F5" />
            <rect x="143.1" y="9" width="1" height="1" fill="#87B6F5" />
            <rect x="148.1" y="9" width="1" height="1" fill="#87B6F5" />
            <rect x="0.100098" y="12" width="1" height="1" fill="#87B6F5" />
            <rect x="5.1001" y="12" width="1" height="1" fill="#87B6F5" />
            <rect x="10.1001" y="12" width="1" height="1" fill="#87B6F5" />
            <rect x="15.1001" y="12" width="1" height="1" fill="#87B6F5" />
            <rect x="20.1001" y="12" width="1" height="1" fill="#87B6F5" />
            <rect x="25.1001" y="12" width="1" height="1" fill="#87B6F5" />
            <rect x="30.1001" y="12" width="1" height="1" fill="#87B6F5" />
            <rect x="35.1001" y="12" width="1" height="1" fill="#87B6F5" />
            <rect x="40.1001" y="12" width="1" height="1" fill="#87B6F5" />
            <rect x="45.1001" y="12" width="1" height="1" fill="#87B6F5" />
            <rect x="50.1001" y="12" width="1" height="1" fill="#87B6F5" />
            <rect x="55.1001" y="12" width="1" height="1" fill="#87B6F5" />
            <rect x="60.1001" y="12" width="1" height="1" fill="#87B6F5" />
            <rect x="65.1001" y="12" width="1" height="1" fill="#87B6F5" />
            <rect x="70.1001" y="12" width="1" height="1" fill="#87B6F5" />
            <rect x="75.1001" y="12" width="1" height="1" fill="#87B6F5" />
            <rect x="80.1001" y="12" width="1" height="1" fill="#87B6F5" />
            <rect x="85.1001" y="12" width="1" height="1" fill="#87B6F5" />
            <rect x="90.1001" y="12" width="1" height="1" fill="#87B6F5" />
            <rect x="95.1001" y="12" width="1" height="1" fill="#87B6F5" />
            <rect x="100.1" y="12" width="1" height="1" fill="#87B6F5" />
            <rect x="105.1" y="12" width="1" height="1" fill="#87B6F5" />
            <rect x="110.1" y="12" width="1" height="1" fill="#87B6F5" />
            <rect x="115.1" y="12" width="1" height="1" fill="#87B6F5" />
            <rect x="120.1" y="12" width="1" height="1" fill="#87B6F5" />
            <rect x="125.1" y="12" width="1" height="1" fill="#87B6F5" />
            <rect x="130.1" y="12" width="1" height="1" fill="#87B6F5" />
            <rect x="135.1" y="12" width="1" height="1" fill="#87B6F5" />
            <rect x="140.1" y="12" width="1" height="1" fill="#87B6F5" />
            <rect x="145.1" y="12" width="1" height="1" fill="#87B6F5" />
            <rect x="150.1" y="12" width="1" height="1" fill="#87B6F5" />
            <rect x="3.1001" y="15" width="1" height="1" fill="#87B6F5" />
            <rect x="8.1001" y="15" width="1" height="1" fill="#87B6F5" />
            <rect x="13.1001" y="15" width="1" height="1" fill="#87B6F5" />
            <rect x="18.1001" y="15" width="1" height="1" fill="#87B6F5" />
            <rect x="23.1001" y="15" width="1" height="1" fill="#87B6F5" />
            <rect x="28.1001" y="15" width="1" height="1" fill="#87B6F5" />
            <rect x="33.1001" y="15" width="1" height="1" fill="#87B6F5" />
            <rect x="38.1001" y="15" width="1" height="1" fill="#87B6F5" />
            <rect x="43.1001" y="15" width="1" height="1" fill="#87B6F5" />
            <rect x="48.1001" y="15" width="1" height="1" fill="#87B6F5" />
            <rect x="53.1001" y="15" width="1" height="1" fill="#87B6F5" />
            <rect x="58.1001" y="15" width="1" height="1" fill="#87B6F5" />
            <rect x="63.1001" y="15" width="1" height="1" fill="#87B6F5" />
            <rect x="68.1001" y="15" width="1" height="1" fill="#87B6F5" />
            <rect x="73.1001" y="15" width="1" height="1" fill="#87B6F5" />
            <rect x="78.1001" y="15" width="1" height="1" fill="#87B6F5" />
            <rect x="83.1001" y="15" width="1" height="1" fill="#87B6F5" />
            <rect x="88.1001" y="15" width="1" height="1" fill="#87B6F5" />
            <rect x="93.1001" y="15" width="1" height="1" fill="#87B6F5" />
            <rect x="98.1001" y="15" width="1" height="1" fill="#87B6F5" />
            <rect x="103.1" y="15" width="1" height="1" fill="#87B6F5" />
            <rect x="108.1" y="15" width="1" height="1" fill="#87B6F5" />
            <rect x="113.1" y="15" width="1" height="1" fill="#87B6F5" />
            <rect x="118.1" y="15" width="1" height="1" fill="#87B6F5" />
            <rect x="123.1" y="15" width="1" height="1" fill="#87B6F5" />
            <rect x="128.1" y="15" width="1" height="1" fill="#87B6F5" />
            <rect x="133.1" y="15" width="1" height="1" fill="#87B6F5" />
            <rect x="138.1" y="15" width="1" height="1" fill="#87B6F5" />
            <rect x="143.1" y="15" width="1" height="1" fill="#87B6F5" />
            <rect x="148.1" y="15" width="1" height="1" fill="#87B6F5" />
            <rect x="0.100098" y="18" width="1" height="1" fill="#87B6F5" />
            <rect x="5.1001" y="18" width="1" height="1" fill="#87B6F5" />
            <rect x="10.1001" y="18" width="1" height="1" fill="#87B6F5" />
            <rect x="15.1001" y="18" width="1" height="1" fill="#87B6F5" />
            <rect x="20.1001" y="18" width="1" height="1" fill="#87B6F5" />
            <rect x="25.1001" y="18" width="1" height="1" fill="#87B6F5" />
            <rect x="30.1001" y="18" width="1" height="1" fill="#87B6F5" />
            <rect x="35.1001" y="18" width="1" height="1" fill="#87B6F5" />
            <rect x="40.1001" y="18" width="1" height="1" fill="#87B6F5" />
            <rect x="45.1001" y="18" width="1" height="1" fill="#87B6F5" />
            <rect x="50.1001" y="18" width="1" height="1" fill="#87B6F5" />
            <rect x="55.1001" y="18" width="1" height="1" fill="#87B6F5" />
            <rect x="60.1001" y="18" width="1" height="1" fill="#87B6F5" />
            <rect x="65.1001" y="18" width="1" height="1" fill="#87B6F5" />
            <rect x="70.1001" y="18" width="1" height="1" fill="#87B6F5" />
            <rect x="75.1001" y="18" width="1" height="1" fill="#87B6F5" />
            <rect x="80.1001" y="18" width="1" height="1" fill="#87B6F5" />
            <rect x="85.1001" y="18" width="1" height="1" fill="#87B6F5" />
            <rect x="90.1001" y="18" width="1" height="1" fill="#87B6F5" />
            <rect x="95.1001" y="18" width="1" height="1" fill="#87B6F5" />
            <rect x="100.1" y="18" width="1" height="1" fill="#87B6F5" />
            <rect x="105.1" y="18" width="1" height="1" fill="#87B6F5" />
            <rect x="110.1" y="18" width="1" height="1" fill="#87B6F5" />
            <rect x="115.1" y="18" width="1" height="1" fill="#87B6F5" />
            <rect x="120.1" y="18" width="1" height="1" fill="#87B6F5" />
            <rect x="125.1" y="18" width="1" height="1" fill="#87B6F5" />
            <rect x="130.1" y="18" width="1" height="1" fill="#87B6F5" />
            <rect x="135.1" y="18" width="1" height="1" fill="#87B6F5" />
            <rect x="140.1" y="18" width="1" height="1" fill="#87B6F5" />
            <rect x="145.1" y="18" width="1" height="1" fill="#87B6F5" />
            <rect x="150.1" y="18" width="1" height="1" fill="#87B6F5" />
            <rect x="3.1001" y="21" width="1" height="1" fill="#87B6F5" />
            <rect x="8.1001" y="21" width="1" height="1" fill="#87B6F5" />
            <rect x="13.1001" y="21" width="1" height="1" fill="#87B6F5" />
            <rect x="18.1001" y="21" width="1" height="1" fill="#87B6F5" />
            <rect x="23.1001" y="21" width="1" height="1" fill="#87B6F5" />
            <rect x="28.1001" y="21" width="1" height="1" fill="#87B6F5" />
            <rect x="33.1001" y="21" width="1" height="1" fill="#87B6F5" />
            <rect x="38.1001" y="21" width="1" height="1" fill="#87B6F5" />
            <rect x="43.1001" y="21" width="1" height="1" fill="#87B6F5" />
            <rect x="48.1001" y="21" width="1" height="1" fill="#87B6F5" />
            <rect x="53.1001" y="21" width="1" height="1" fill="#87B6F5" />
            <rect x="58.1001" y="21" width="1" height="1" fill="#87B6F5" />
            <rect x="63.1001" y="21" width="1" height="1" fill="#87B6F5" />
            <rect x="68.1001" y="21" width="1" height="1" fill="#87B6F5" />
            <rect x="73.1001" y="21" width="1" height="1" fill="#87B6F5" />
            <rect x="78.1001" y="21" width="1" height="1" fill="#87B6F5" />
            <rect x="83.1001" y="21" width="1" height="1" fill="#87B6F5" />
            <rect x="88.1001" y="21" width="1" height="1" fill="#87B6F5" />
            <rect x="93.1001" y="21" width="1" height="1" fill="#87B6F5" />
            <rect x="98.1001" y="21" width="1" height="1" fill="#87B6F5" />
            <rect x="103.1" y="21" width="1" height="1" fill="#87B6F5" />
            <rect x="108.1" y="21" width="1" height="1" fill="#87B6F5" />
            <rect x="113.1" y="21" width="1" height="1" fill="#87B6F5" />
            <rect x="118.1" y="21" width="1" height="1" fill="#87B6F5" />
            <rect x="123.1" y="21" width="1" height="1" fill="#87B6F5" />
            <rect x="128.1" y="21" width="1" height="1" fill="#87B6F5" />
            <rect x="133.1" y="21" width="1" height="1" fill="#87B6F5" />
            <rect x="138.1" y="21" width="1" height="1" fill="#87B6F5" />
            <rect x="143.1" y="21" width="1" height="1" fill="#87B6F5" />
            <rect x="148.1" y="21" width="1" height="1" fill="#87B6F5" />
            <rect x="0.100098" y="24" width="1" height="1" fill="#87B6F5" />
            <rect x="5.1001" y="24" width="1" height="1" fill="#87B6F5" />
            <rect x="10.1001" y="24" width="1" height="1" fill="#87B6F5" />
            <rect x="15.1001" y="24" width="1" height="1" fill="#87B6F5" />
            <rect x="20.1001" y="24" width="1" height="1" fill="#87B6F5" />
            <rect x="25.1001" y="24" width="1" height="1" fill="#87B6F5" />
            <rect x="30.1001" y="24" width="1" height="1" fill="#87B6F5" />
            <rect x="35.1001" y="24" width="1" height="1" fill="#87B6F5" />
            <rect x="40.1001" y="24" width="1" height="1" fill="#87B6F5" />
            <rect x="45.1001" y="24" width="1" height="1" fill="#87B6F5" />
            <rect x="50.1001" y="24" width="1" height="1" fill="#87B6F5" />
            <rect x="55.1001" y="24" width="1" height="1" fill="#87B6F5" />
            <rect x="60.1001" y="24" width="1" height="1" fill="#87B6F5" />
            <rect x="65.1001" y="24" width="1" height="1" fill="#87B6F5" />
            <rect x="70.1001" y="24" width="1" height="1" fill="#87B6F5" />
            <rect x="75.1001" y="24" width="1" height="1" fill="#87B6F5" />
            <rect x="80.1001" y="24" width="1" height="1" fill="#87B6F5" />
            <rect x="85.1001" y="24" width="1" height="1" fill="#87B6F5" />
            <rect x="90.1001" y="24" width="1" height="1" fill="#87B6F5" />
            <rect x="95.1001" y="24" width="1" height="1" fill="#87B6F5" />
            <rect x="100.1" y="24" width="1" height="1" fill="#87B6F5" />
            <rect x="105.1" y="24" width="1" height="1" fill="#87B6F5" />
            <rect x="110.1" y="24" width="1" height="1" fill="#87B6F5" />
            <rect x="115.1" y="24" width="1" height="1" fill="#87B6F5" />
            <rect x="120.1" y="24" width="1" height="1" fill="#87B6F5" />
            <rect x="125.1" y="24" width="1" height="1" fill="#87B6F5" />
            <rect x="130.1" y="24" width="1" height="1" fill="#87B6F5" />
            <rect x="135.1" y="24" width="1" height="1" fill="#87B6F5" />
            <rect x="140.1" y="24" width="1" height="1" fill="#87B6F5" />
            <rect x="145.1" y="24" width="1" height="1" fill="#87B6F5" />
            <rect x="150.1" y="24" width="1" height="1" fill="#87B6F5" />
            <rect x="3.1001" y="27" width="1" height="1" fill="#87B6F5" />
            <rect x="8.1001" y="27" width="1" height="1" fill="#87B6F5" />
            <rect x="13.1001" y="27" width="1" height="1" fill="#87B6F5" />
            <rect x="18.1001" y="27" width="1" height="1" fill="#87B6F5" />
            <rect x="23.1001" y="27" width="1" height="1" fill="#87B6F5" />
            <rect x="28.1001" y="27" width="1" height="1" fill="#87B6F5" />
            <rect x="33.1001" y="27" width="1" height="1" fill="#87B6F5" />
            <rect x="38.1001" y="27" width="1" height="1" fill="#87B6F5" />
            <rect x="43.1001" y="27" width="1" height="1" fill="#87B6F5" />
            <rect x="48.1001" y="27" width="1" height="1" fill="#87B6F5" />
            <rect x="53.1001" y="27" width="1" height="1" fill="#87B6F5" />
            <rect x="58.1001" y="27" width="1" height="1" fill="#87B6F5" />
            <rect x="63.1001" y="27" width="1" height="1" fill="#87B6F5" />
            <rect x="68.1001" y="27" width="1" height="1" fill="#87B6F5" />
            <rect x="73.1001" y="27" width="1" height="1" fill="#87B6F5" />
            <rect x="78.1001" y="27" width="1" height="1" fill="#87B6F5" />
            <rect x="83.1001" y="27" width="1" height="1" fill="#87B6F5" />
            <rect x="88.1001" y="27" width="1" height="1" fill="#87B6F5" />
            <rect x="93.1001" y="27" width="1" height="1" fill="#87B6F5" />
            <rect x="98.1001" y="27" width="1" height="1" fill="#87B6F5" />
            <rect x="103.1" y="27" width="1" height="1" fill="#87B6F5" />
            <rect x="108.1" y="27" width="1" height="1" fill="#87B6F5" />
            <rect x="113.1" y="27" width="1" height="1" fill="#87B6F5" />
            <rect x="118.1" y="27" width="1" height="1" fill="#87B6F5" />
            <rect x="123.1" y="27" width="1" height="1" fill="#87B6F5" />
            <rect x="128.1" y="27" width="1" height="1" fill="#87B6F5" />
            <rect x="133.1" y="27" width="1" height="1" fill="#87B6F5" />
            <rect x="138.1" y="27" width="1" height="1" fill="#87B6F5" />
            <rect x="143.1" y="27" width="1" height="1" fill="#87B6F5" />
            <rect x="148.1" y="27" width="1" height="1" fill="#87B6F5" />
            <rect x="0.100098" y="30" width="1" height="1" fill="#87B6F5" />
            <rect x="5.1001" y="30" width="1" height="1" fill="#87B6F5" />
            <rect x="10.1001" y="30" width="1" height="1" fill="#87B6F5" />
            <rect x="15.1001" y="30" width="1" height="1" fill="#87B6F5" />
            <rect x="20.1001" y="30" width="1" height="1" fill="#87B6F5" />
            <rect x="25.1001" y="30" width="1" height="1" fill="#87B6F5" />
            <rect x="30.1001" y="30" width="1" height="1" fill="#87B6F5" />
            <rect x="35.1001" y="30" width="1" height="1" fill="#87B6F5" />
            <rect x="40.1001" y="30" width="1" height="1" fill="#87B6F5" />
            <rect x="45.1001" y="30" width="1" height="1" fill="#87B6F5" />
            <rect x="50.1001" y="30" width="1" height="1" fill="#87B6F5" />
            <rect x="55.1001" y="30" width="1" height="1" fill="#87B6F5" />
            <rect x="60.1001" y="30" width="1" height="1" fill="#87B6F5" />
            <rect x="65.1001" y="30" width="1" height="1" fill="#87B6F5" />
            <rect x="70.1001" y="30" width="1" height="1" fill="#87B6F5" />
            <rect x="75.1001" y="30" width="1" height="1" fill="#87B6F5" />
            <rect x="80.1001" y="30" width="1" height="1" fill="#87B6F5" />
            <rect x="85.1001" y="30" width="1" height="1" fill="#87B6F5" />
            <rect x="90.1001" y="30" width="1" height="1" fill="#87B6F5" />
            <rect x="95.1001" y="30" width="1" height="1" fill="#87B6F5" />
            <rect x="100.1" y="30" width="1" height="1" fill="#87B6F5" />
            <rect x="105.1" y="30" width="1" height="1" fill="#87B6F5" />
            <rect x="110.1" y="30" width="1" height="1" fill="#87B6F5" />
            <rect x="115.1" y="30" width="1" height="1" fill="#87B6F5" />
            <rect x="120.1" y="30" width="1" height="1" fill="#87B6F5" />
            <rect x="125.1" y="30" width="1" height="1" fill="#87B6F5" />
            <rect x="130.1" y="30" width="1" height="1" fill="#87B6F5" />
            <rect x="135.1" y="30" width="1" height="1" fill="#87B6F5" />
            <rect x="140.1" y="30" width="1" height="1" fill="#87B6F5" />
            <rect x="145.1" y="30" width="1" height="1" fill="#87B6F5" />
            <rect x="150.1" y="30" width="1" height="1" fill="#87B6F5" />
            <rect x="3.1001" y="33" width="1" height="1" fill="#87B6F5" />
            <rect x="8.1001" y="33" width="1" height="1" fill="#87B6F5" />
            <rect x="13.1001" y="33" width="1" height="1" fill="#87B6F5" />
            <rect x="18.1001" y="33" width="1" height="1" fill="#87B6F5" />
            <rect x="23.1001" y="33" width="1" height="1" fill="#87B6F5" />
            <rect x="28.1001" y="33" width="1" height="1" fill="#87B6F5" />
            <rect x="33.1001" y="33" width="1" height="1" fill="#87B6F5" />
            <rect x="38.1001" y="33" width="1" height="1" fill="#87B6F5" />
            <rect x="43.1001" y="33" width="1" height="1" fill="#87B6F5" />
            <rect x="48.1001" y="33" width="1" height="1" fill="#87B6F5" />
            <rect x="53.1001" y="33" width="1" height="1" fill="#87B6F5" />
            <rect x="58.1001" y="33" width="1" height="1" fill="#87B6F5" />
            <rect x="63.1001" y="33" width="1" height="1" fill="#87B6F5" />
            <rect x="68.1001" y="33" width="1" height="1" fill="#87B6F5" />
            <rect x="73.1001" y="33" width="1" height="1" fill="#87B6F5" />
            <rect x="78.1001" y="33" width="1" height="1" fill="#87B6F5" />
            <rect x="83.1001" y="33" width="1" height="1" fill="#87B6F5" />
            <rect x="88.1001" y="33" width="1" height="1" fill="#87B6F5" />
            <rect x="93.1001" y="33" width="1" height="1" fill="#87B6F5" />
            <rect x="98.1001" y="33" width="1" height="1" fill="#87B6F5" />
            <rect x="103.1" y="33" width="1" height="1" fill="#87B6F5" />
            <rect x="108.1" y="33" width="1" height="1" fill="#87B6F5" />
            <rect x="113.1" y="33" width="1" height="1" fill="#87B6F5" />
            <rect x="118.1" y="33" width="1" height="1" fill="#87B6F5" />
            <rect x="123.1" y="33" width="1" height="1" fill="#87B6F5" />
            <rect x="128.1" y="33" width="1" height="1" fill="#87B6F5" />
            <rect x="133.1" y="33" width="1" height="1" fill="#87B6F5" />
            <rect x="138.1" y="33" width="1" height="1" fill="#87B6F5" />
            <rect x="143.1" y="33" width="1" height="1" fill="#87B6F5" />
            <rect x="148.1" y="33" width="1" height="1" fill="#87B6F5" />
            <rect x="0.100098" y="36" width="1" height="1" fill="#87B6F5" />
            <rect x="5.1001" y="36" width="1" height="1" fill="#87B6F5" />
            <rect x="10.1001" y="36" width="1" height="1" fill="#87B6F5" />
            <rect x="15.1001" y="36" width="1" height="1" fill="#87B6F5" />
            <rect x="20.1001" y="36" width="1" height="1" fill="#87B6F5" />
            <rect x="25.1001" y="36" width="1" height="1" fill="#87B6F5" />
            <rect x="30.1001" y="36" width="1" height="1" fill="#87B6F5" />
            <rect x="35.1001" y="36" width="1" height="1" fill="#87B6F5" />
            <rect x="40.1001" y="36" width="1" height="1" fill="#87B6F5" />
            <rect x="45.1001" y="36" width="1" height="1" fill="#87B6F5" />
            <rect x="50.1001" y="36" width="1" height="1" fill="#87B6F5" />
            <rect x="55.1001" y="36" width="1" height="1" fill="#87B6F5" />
            <rect x="60.1001" y="36" width="1" height="1" fill="#87B6F5" />
            <rect x="65.1001" y="36" width="1" height="1" fill="#87B6F5" />
            <rect x="70.1001" y="36" width="1" height="1" fill="#87B6F5" />
            <rect x="75.1001" y="36" width="1" height="1" fill="#87B6F5" />
            <rect x="80.1001" y="36" width="1" height="1" fill="#87B6F5" />
            <rect x="85.1001" y="36" width="1" height="1" fill="#87B6F5" />
            <rect x="90.1001" y="36" width="1" height="1" fill="#87B6F5" />
            <rect x="95.1001" y="36" width="1" height="1" fill="#87B6F5" />
            <rect x="100.1" y="36" width="1" height="1" fill="#87B6F5" />
            <rect x="105.1" y="36" width="1" height="1" fill="#87B6F5" />
            <rect x="110.1" y="36" width="1" height="1" fill="#87B6F5" />
            <rect x="115.1" y="36" width="1" height="1" fill="#87B6F5" />
            <rect x="120.1" y="36" width="1" height="1" fill="#87B6F5" />
            <rect x="125.1" y="36" width="1" height="1" fill="#87B6F5" />
            <rect x="130.1" y="36" width="1" height="1" fill="#87B6F5" />
            <rect x="135.1" y="36" width="1" height="1" fill="#87B6F5" />
            <rect x="140.1" y="36" width="1" height="1" fill="#87B6F5" />
            <rect x="145.1" y="36" width="1" height="1" fill="#87B6F5" />
            <rect x="150.1" y="36" width="1" height="1" fill="#87B6F5" />
            <rect x="3.1001" y="39" width="1" height="1" fill="#87B6F5" />
            <rect x="8.1001" y="39" width="1" height="1" fill="#87B6F5" />
            <rect x="13.1001" y="39" width="1" height="1" fill="#87B6F5" />
            <rect x="18.1001" y="39" width="1" height="1" fill="#87B6F5" />
            <rect x="23.1001" y="39" width="1" height="1" fill="#87B6F5" />
            <rect x="28.1001" y="39" width="1" height="1" fill="#87B6F5" />
            <rect x="33.1001" y="39" width="1" height="1" fill="#87B6F5" />
            <rect x="38.1001" y="39" width="1" height="1" fill="#87B6F5" />
            <rect x="43.1001" y="39" width="1" height="1" fill="#87B6F5" />
            <rect x="48.1001" y="39" width="1" height="1" fill="#87B6F5" />
            <rect x="53.1001" y="39" width="1" height="1" fill="#87B6F5" />
            <rect x="58.1001" y="39" width="1" height="1" fill="#87B6F5" />
            <rect x="63.1001" y="39" width="1" height="1" fill="#87B6F5" />
            <rect x="68.1001" y="39" width="1" height="1" fill="#87B6F5" />
            <rect x="73.1001" y="39" width="1" height="1" fill="#87B6F5" />
            <rect x="78.1001" y="39" width="1" height="1" fill="#87B6F5" />
            <rect x="83.1001" y="39" width="1" height="1" fill="#87B6F5" />
            <rect x="88.1001" y="39" width="1" height="1" fill="#87B6F5" />
            <rect x="93.1001" y="39" width="1" height="1" fill="#87B6F5" />
            <rect x="98.1001" y="39" width="1" height="1" fill="#87B6F5" />
            <rect x="103.1" y="39" width="1" height="1" fill="#87B6F5" />
            <rect x="108.1" y="39" width="1" height="1" fill="#87B6F5" />
            <rect x="113.1" y="39" width="1" height="1" fill="#87B6F5" />
            <rect x="118.1" y="39" width="1" height="1" fill="#87B6F5" />
            <rect x="123.1" y="39" width="1" height="1" fill="#87B6F5" />
            <rect x="128.1" y="39" width="1" height="1" fill="#87B6F5" />
            <rect x="133.1" y="39" width="1" height="1" fill="#87B6F5" />
            <rect x="138.1" y="39" width="1" height="1" fill="#87B6F5" />
            <rect x="143.1" y="39" width="1" height="1" fill="#87B6F5" />
            <rect x="148.1" y="39" width="1" height="1" fill="#87B6F5" />
            <rect x="0.100098" y="42" width="1" height="1" fill="#87B6F5" />
            <rect x="5.1001" y="42" width="1" height="1" fill="#87B6F5" />
            <rect x="10.1001" y="42" width="1" height="1" fill="#87B6F5" />
            <rect x="15.1001" y="42" width="1" height="1" fill="#87B6F5" />
            <rect x="20.1001" y="42" width="1" height="1" fill="#87B6F5" />
            <rect x="25.1001" y="42" width="1" height="1" fill="#87B6F5" />
            <rect x="30.1001" y="42" width="1" height="1" fill="#87B6F5" />
            <rect x="35.1001" y="42" width="1" height="1" fill="#87B6F5" />
            <rect x="40.1001" y="42" width="1" height="1" fill="#87B6F5" />
            <rect x="45.1001" y="42" width="1" height="1" fill="#87B6F5" />
            <rect x="50.1001" y="42" width="1" height="1" fill="#87B6F5" />
            <rect x="55.1001" y="42" width="1" height="1" fill="#87B6F5" />
            <rect x="60.1001" y="42" width="1" height="1" fill="#87B6F5" />
            <rect x="65.1001" y="42" width="1" height="1" fill="#87B6F5" />
            <rect x="70.1001" y="42" width="1" height="1" fill="#87B6F5" />
            <rect x="75.1001" y="42" width="1" height="1" fill="#87B6F5" />
            <rect x="80.1001" y="42" width="1" height="1" fill="#87B6F5" />
            <rect x="85.1001" y="42" width="1" height="1" fill="#87B6F5" />
            <rect x="90.1001" y="42" width="1" height="1" fill="#87B6F5" />
            <rect x="95.1001" y="42" width="1" height="1" fill="#87B6F5" />
            <rect x="100.1" y="42" width="1" height="1" fill="#87B6F5" />
            <rect x="105.1" y="42" width="1" height="1" fill="#87B6F5" />
            <rect x="110.1" y="42" width="1" height="1" fill="#87B6F5" />
            <rect x="115.1" y="42" width="1" height="1" fill="#87B6F5" />
            <rect x="120.1" y="42" width="1" height="1" fill="#87B6F5" />
            <rect x="125.1" y="42" width="1" height="1" fill="#87B6F5" />
            <rect x="130.1" y="42" width="1" height="1" fill="#87B6F5" />
            <rect x="135.1" y="42" width="1" height="1" fill="#87B6F5" />
            <rect x="140.1" y="42" width="1" height="1" fill="#87B6F5" />
            <rect x="145.1" y="42" width="1" height="1" fill="#87B6F5" />
            <rect x="150.1" y="42" width="1" height="1" fill="#87B6F5" />
        </svg>