<svg width="20" height="20" viewBox="0 0 20 20" fill="none" xmlns="http://www.w3.org/2000/svg">
<path d="M7.08333 11.666C7.54357 11.666 7.91666 11.2929 7.91666 10.8327C7.91666 10.3724 7.54357 9.99935 7.08333 9.99935C6.62309 9.99935 6.24999 10.3724 6.24999 10.8327C6.24999 11.2929 6.62309 11.666 7.08333 11.666Z" fill="#818CF8"/>
<path d="M10.8333 10.8327C10.8333 11.2929 10.4602 11.666 9.99999 11.666C9.53976 11.666 9.16666 11.2929 9.16666 10.8327C9.16666 10.3724 9.53976 9.99935 9.99999 9.99935C10.4602 9.99935 10.8333 10.3724 10.8333 10.8327Z" fill="#818CF8"/>
<path d="M12.9167 11.666C13.3769 11.666 13.75 11.2929 13.75 10.8327C13.75 10.3724 13.3769 9.99935 12.9167 9.99935C12.4564 9.99935 12.0833 10.3724 12.0833 10.8327C12.0833 11.2929 12.4564 11.666 12.9167 11.666Z" fill="#818CF8"/>
<path fill-rule="evenodd" clip-rule="evenodd" d="M5.83333 2.49935C5.83333 2.03911 6.20642 1.66602 6.66666 1.66602C7.1269 1.66602 7.49999 2.03911 7.49999 2.49935V3.33268H12.5V2.49935C12.5 2.03911 12.8731 1.66602 13.3333 1.66602C13.7936 1.66602 14.1667 2.03911 14.1667 2.49935V3.33268H15C15.9205 3.33268 16.6667 4.07887 16.6667 4.99935V15.8327C16.6667 16.7532 15.9205 17.4993 15 17.4993H4.99999C4.07952 17.4993 3.33333 16.7532 3.33333 15.8327V4.99935C3.33333 4.07887 4.07952 3.33268 4.99999 3.33268H5.83333V2.49935ZM14.5833 4.99935H5.41666C5.18654 4.99935 4.99999 5.1859 4.99999 5.41602V6.66602H15V5.41602C15 5.1859 14.8134 4.99935 14.5833 4.99935ZM4.99999 15.416V8.33268H15V15.416C15 15.6461 14.8134 15.8327 14.5833 15.8327H5.41666C5.18654 15.8327 4.99999 15.6461 4.99999 15.416Z" fill="#818CF8"/>
</svg>
